<svg width="165" height="17" viewBox="0 0 165 17" fill="none" xmlns="http://www.w3.org/2000/svg">
<g clip-path="url(#clip0_114_1528)">
<path d="M9.84764 16.7059V0.300293H7.39151V6.59018H2.46191V0.300293H0V16.7059H2.46191V8.81183H7.39151V16.7059H9.84764Z" fill="black"/>
<path d="M18.1758 17C22.0594 17 23.6371 14.4321 23.6371 8.14223C23.6371 2.51018 22.0074 0 18.3434 0C14.6795 0 12.9053 2.65445 12.9053 8.35574C12.9053 14.334 14.535 17.0115 18.1758 17.0115V17ZM18.2972 2.1351C20.0309 2.1351 21.1059 3.21419 21.1059 8.58656C21.1059 13.0991 20.2679 14.9341 18.2163 14.9341C16.7657 14.9341 15.425 14.1378 15.425 8.38459C15.425 3.94128 16.2572 2.12933 18.3145 2.12933" fill="black"/>
<path d="M33.9991 16.7059H37.0158V0.300293H34.629V12.5107L29.7745 0.300293H26.7578V16.7059H29.1446V4.4897L33.9991 16.7059Z" fill="black"/>
<path d="M50.8566 8.14223C50.8566 2.51018 49.2096 0 45.5456 0C41.8816 0 40.1074 2.65445 40.1074 8.35574C40.1074 14.334 41.7314 17.0115 45.378 17.0115C49.2558 17 50.8566 14.4263 50.8566 8.14223ZM45.4011 14.9284C43.9563 14.9284 42.6156 14.132 42.6156 8.37882C42.6156 3.93551 43.4478 2.12356 45.5051 2.12356C47.2389 2.12356 48.3138 3.20265 48.3138 8.57502C48.3138 13.0876 47.4758 14.9226 45.4242 14.9226" fill="black"/>
<path d="M64.0964 16.3366C63.6667 15.5286 63.4669 14.6186 63.5185 13.7052C63.3914 10.0352 63.1255 8.70796 61.5998 8.09629C62.9059 7.46153 63.5647 6.24972 63.5647 4.47239C63.6092 3.76909 63.4591 3.06713 63.1309 2.44326C62.8027 1.8194 62.309 1.29764 61.7039 0.935052C60.9988 0.47918 60.103 0.300293 58.5773 0.300293H53.8789V16.7348H56.3177V9.12921H57.9821C59.2997 9.12921 59.7967 9.22731 60.2244 9.59086C60.652 9.9544 60.8659 10.7046 60.9352 12.58C61.0393 15.2806 61.1144 16.0423 61.5131 16.5847L61.594 16.7059H64.1253L64.0964 16.3366ZM60.1782 6.63057C59.5802 7.00426 58.8747 7.1687 58.1728 7.09799H56.3177V2.395H58.219C58.8302 2.38243 59.4383 2.48623 60.0106 2.70084C60.3685 2.87919 60.663 3.16299 60.8543 3.51388C61.0455 3.86477 61.1242 4.26582 61.0797 4.66282C61.1121 5.04059 61.0461 5.42032 60.8882 5.76511C60.7302 6.1099 60.4856 6.40804 60.1782 6.63057Z" fill="black"/>
<path d="M76.6312 16.7059V2.53926H80.6188V0.300293H70.147V2.53926H74.175V16.7059H76.6312Z" fill="black"/>
<path d="M82.6069 0.300293V16.7059H85.0631V8.81183H89.9984V16.7059H92.4546V0.300293H89.9984V6.59018H85.0631V0.300293H82.6069Z" fill="black"/>
<path d="M104.244 2.53926V0.300293H95.5176V16.7059H104.481V14.467H97.9737V9.27348H103.886V7.05759H97.9737V2.53926H104.244Z" fill="black"/>
<path d="M116.952 2.10048C118.437 2.10048 119.264 3.06415 119.356 4.98574V5.23388H121.807V4.94535C121.732 1.80618 119.957 0 116.941 0C113.23 0 111.572 2.63136 111.572 8.52885C111.572 11.4891 111.976 13.5838 112.803 14.9226C113.203 15.5723 113.767 16.1059 114.438 16.4704C115.11 16.8349 115.865 17.0175 116.629 17C117.281 17.0365 117.932 16.9031 118.518 16.6127C119.103 16.3224 119.603 15.8852 119.969 15.3439V16.6711H121.974V7.6979H116.484V9.80991H119.628C119.651 10.9254 119.527 12.0391 119.258 13.1222C119.118 13.6384 118.813 14.095 118.389 14.4229C117.966 14.7509 117.447 14.9323 116.912 14.9399C115.588 14.9399 114.074 14.2475 114.074 8.8924C114.074 3.88357 114.825 2.11202 116.964 2.11202" fill="black"/>
<path d="M127.586 0.300293H125.101V16.7059H127.586V0.300293Z" fill="black"/>
<path d="M130.729 16.7059H133.209V9.2504H139.051V7.05759H133.209V2.53926H139.41V0.300293H130.729V16.7059Z" fill="black"/>
<path d="M140.901 2.53926H144.929V16.7059H147.385V2.53926H151.367V0.300293H140.901V2.53926Z" fill="black"/>
<path d="M158.781 0.115177C157.843 0.0734082 156.909 0.257655 156.057 0.652362C155.205 1.04707 154.46 1.64065 153.886 2.383C153.002 3.68137 152.569 5.58565 152.569 8.36704C152.569 11.2523 152.979 13.2201 153.858 14.5877C154.736 15.9553 156.574 16.8959 158.66 16.8959C160.972 16.8959 162.74 16.0765 163.682 14.5877C164.578 13.2085 164.977 11.2696 164.977 8.2978C164.977 5.57987 164.549 3.64675 163.676 2.383C162.7 0.940363 160.902 0.115177 158.781 0.115177ZM158.712 15.4013C155.557 15.4013 154.147 13.3124 154.147 8.63249C154.147 6.32427 154.488 4.4777 155.1 3.39284C155.713 2.30798 157.036 1.6963 158.805 1.6963C160.573 1.6963 161.827 2.27336 162.486 3.39284C163.145 4.51233 163.439 6.33004 163.439 8.58632C163.439 13.4278 162.07 15.4013 158.712 15.4013Z" fill="black"/>
<path d="M161.637 11.8411C161.573 9.60217 161.469 8.8116 160.689 8.40767C161.019 8.18007 161.285 7.87041 161.459 7.50917C161.634 7.14794 161.711 6.7476 161.683 6.34758C161.695 5.93108 161.609 5.51752 161.431 5.14051C161.254 4.7635 160.989 4.43368 160.66 4.17786C160.198 3.82009 159.706 3.71045 158.568 3.71045H156.037V13.1222H157.574V9.14629H158.389C159.787 9.14629 159.966 9.27325 159.995 11.4199C159.942 11.9675 160.029 12.5198 160.25 13.0241L160.302 13.1222H161.931L161.827 12.8741C161.685 12.5485 161.616 12.196 161.625 11.8411H161.637ZM159.735 7.45553C159.475 7.7152 159.215 7.77868 158.412 7.77868H157.574V5.19348H158.348C159.192 5.19348 159.423 5.25118 159.649 5.40122C159.796 5.5341 159.91 5.69895 159.983 5.88305C160.056 6.06715 160.086 6.26557 160.07 6.463C160.083 6.82963 159.967 7.18913 159.741 7.47861" fill="black"/>
</g>
<defs>
<clipPath id="clip0_114_1528">
<rect width="165" height="17" fill="white"/>
</clipPath>
</defs>
</svg>
